<?xml version="1.0" encoding="UTF-8"?>
<svg id="Layer_2" data-name="Layer 2" xmlns="http://www.w3.org/2000/svg" viewBox="0 0 189.77 57.66">
  <defs>
    <style>
      .cls-1 {
        fill: #ebe833;
      }

      .cls-1, .cls-2 {
        stroke-width: 0px;
      }

      .cls-2 {
        fill: #1aa089;
      }
    </style>
  </defs>
  <g id="Layer_1-2" data-name="Layer 1">
    <g>
      <g>
        <path class="cls-1" d="M72.01,55.16c-1.59,0-2.97-.28-4.12-.83-1.15-.55-2.09-1.35-2.8-2.39-.72-1.04-1.24-2.28-1.58-3.72-.33-1.44-.5-3.05-.5-4.83s.17-3.33.5-4.79c.33-1.47.85-2.73,1.56-3.81.7-1.07,1.63-1.9,2.77-2.48,1.14-.58,2.51-.87,4.1-.87,1.38,0,2.57.22,3.57.66.99.44,1.79,1.04,2.39,1.82.6.77,1.02,1.68,1.25,2.72.23,1.04.29,2.15.17,3.32l-4.57.62c.09-1.11.02-2.05-.21-2.82-.23-.77-.58-1.37-1.06-1.78-.47-.42-1.04-.62-1.71-.62-.58,0-1.1.16-1.56.47-.46.31-.85.78-1.18,1.4s-.57,1.42-.74,2.39c-.17.97-.26,2.11-.26,3.43,0,1.92.16,3.47.47,4.67.31,1.2.77,2.09,1.37,2.67.6.58,1.32.87,2.15.87.88,0,1.56-.29,2.06-.88.5-.59.84-1.37,1.02-2.34.18-.97.23-2.04.14-3.22l4.57.55c.16,1.43.13,2.75-.1,3.95-.23,1.2-.66,2.24-1.3,3.12-.64.88-1.48,1.55-2.53,2.03-1.05.47-2.34.71-3.86.71Z"/>
        <path class="cls-1" d="M81.12,54.71v-9.69l-.03-8.55h4.26l-.07,7.03h.42c.09-1.82.33-3.27.73-4.33.39-1.06.91-1.82,1.56-2.28.65-.46,1.38-.69,2.22-.69.23,0,.46.02.69.05.23.03.47.11.73.22l-.24,5.4c-.28-.14-.57-.24-.87-.29-.3-.06-.58-.09-.83-.09-.74,0-1.37.21-1.9.62-.53.42-.95,1.05-1.25,1.9-.3.85-.46,1.92-.48,3.18v7.51h-4.92Z"/>
        <path class="cls-1" d="M99.43,55.16c-1.43,0-2.65-.22-3.65-.67-1-.45-1.81-1.09-2.42-1.92-.61-.83-1.06-1.81-1.35-2.93-.29-1.12-.43-2.35-.43-3.69s.14-2.57.42-3.76c.28-1.19.71-2.24,1.3-3.17.59-.92,1.37-1.66,2.34-2.2.97-.54,2.16-.81,3.57-.81,1.32,0,2.45.25,3.39.74.95.5,1.7,1.19,2.27,2.09.57.9.94,1.97,1.12,3.2.18,1.24.2,2.6.03,4.1l-11.18.24v-2.56l7.48-.17-.8,1.52c.12-1.2.1-2.19-.05-2.98-.15-.78-.42-1.37-.8-1.75-.38-.38-.87-.57-1.47-.57-.67,0-1.21.22-1.63.67s-.72,1.1-.92,1.94c-.2.84-.29,1.86-.29,3.06,0,2.05.26,3.55.78,4.5.52.95,1.29,1.42,2.3,1.42.48,0,.88-.09,1.19-.28.31-.18.56-.43.74-.74.18-.31.31-.69.38-1.12.07-.44.09-.9.07-1.38l4.47.42c.05.83-.03,1.64-.23,2.44s-.55,1.52-1.07,2.18c-.52.66-1.23,1.18-2.13,1.57-.9.39-2.04.59-3.43.59Z"/>
        <path class="cls-1" d="M111.48,55.16c-.83,0-1.59-.17-2.28-.52s-1.25-.87-1.66-1.57c-.42-.7-.62-1.59-.62-2.65s.18-1.86.55-2.54c.37-.68.87-1.23,1.51-1.66.63-.43,1.34-.77,2.11-1.04s1.56-.5,2.37-.71c.83-.21,1.48-.4,1.94-.59.46-.18.79-.41.99-.67.2-.27.29-.62.29-1.06,0-.72-.19-1.28-.57-1.68-.38-.4-.92-.61-1.61-.61-.48,0-.92.13-1.32.38-.39.25-.7.65-.92,1.19-.22.54-.32,1.24-.29,2.09l-4.5-.55c0-1.2.17-2.24.52-3.12.35-.88.85-1.6,1.51-2.16.66-.57,1.42-.99,2.3-1.26.88-.28,1.83-.42,2.87-.42,1.55,0,2.82.29,3.81.87.99.58,1.74,1.44,2.23,2.58.5,1.14.74,2.58.74,4.31v3.91c0,.76,0,1.54.02,2.34s.03,1.59.05,2.37c.02.78.05,1.56.07,2.32h-4.26c-.02-.81-.05-1.62-.07-2.42s-.03-1.64-.03-2.49h-.35c-.16,1.09-.48,2.03-.95,2.84-.47.81-1.09,1.43-1.83,1.87-.75.44-1.62.66-2.61.66ZM113.49,51.39c.37,0,.73-.09,1.09-.28.36-.18.68-.44.97-.78.29-.33.53-.74.73-1.23.2-.48.32-1.03.36-1.63v-2.11l.9-.21c-.23.3-.54.55-.93.74s-.81.36-1.25.5c-.44.14-.88.28-1.32.43-.44.15-.84.33-1.19.54-.36.21-.65.47-.87.8-.22.32-.33.74-.33,1.25,0,.65.18,1.14.54,1.47.36.34.79.5,1.3.5Z"/>
        <path class="cls-1" d="M129.34,55.06c-1.85,0-3.25-.51-4.21-1.54-.96-1.03-1.44-2.6-1.44-4.73v-8.48h-1.73v-3.39h.66c.92-.07,1.57-.32,1.96-.74.38-.43.62-1.09.71-1.99l.21-1.49h2.98v3.77h3.43v3.95h-3.43v7.69c0,.85.17,1.48.5,1.87.33.39.79.59,1.37.59.28,0,.55-.04.83-.12.28-.08.54-.19.8-.33v4.53c-.51.16-.98.27-1.4.33-.43.06-.84.09-1.23.09Z"/>
        <path class="cls-1" d="M135.61,34.74c-.95,0-1.67-.2-2.18-.59-.51-.39-.76-.96-.76-1.7s.25-1.34.76-1.75c.51-.4,1.23-.61,2.18-.61s1.67.2,2.18.61c.51.4.76.99.76,1.75s-.25,1.3-.76,1.7c-.51.39-1.24.59-2.18.59ZM133.18,54.71v-18.24h4.85v18.24h-4.85Z"/>
        <path class="cls-1" d="M143.61,54.71l-4.85-18.21h5.19l2.7,14.12h.24l2.8-14.12h5.02l-4.85,18.21h-6.27Z"/>
        <path class="cls-1" d="M161.99,55.16c-1.43,0-2.65-.22-3.65-.67-1-.45-1.81-1.09-2.42-1.92-.61-.83-1.06-1.81-1.35-2.93-.29-1.12-.43-2.35-.43-3.69s.14-2.57.42-3.76c.28-1.19.71-2.24,1.3-3.17.59-.92,1.37-1.66,2.34-2.2.97-.54,2.16-.81,3.57-.81,1.32,0,2.45.25,3.39.74.95.5,1.7,1.19,2.27,2.09.57.9.94,1.97,1.12,3.2.18,1.24.2,2.6.03,4.1l-11.18.24v-2.56l7.48-.17-.8,1.52c.12-1.2.1-2.19-.05-2.98-.15-.78-.42-1.37-.8-1.75-.38-.38-.87-.57-1.47-.57-.67,0-1.21.22-1.63.67s-.72,1.1-.92,1.94c-.2.84-.29,1.86-.29,3.06,0,2.05.26,3.55.78,4.5.52.95,1.29,1.42,2.3,1.42.48,0,.88-.09,1.19-.28.31-.18.56-.43.74-.74.18-.31.31-.69.38-1.12.07-.44.09-.9.07-1.38l4.47.42c.05.83-.03,1.64-.23,2.44s-.55,1.52-1.07,2.18c-.52.66-1.23,1.18-2.13,1.57-.9.39-2.04.59-3.43.59Z"/>
        <path class="cls-1" d="M176.8,55.16c-1.27,0-2.38-.16-3.32-.48-.95-.32-1.72-.78-2.32-1.37-.6-.59-1.02-1.29-1.26-2.11-.24-.82-.29-1.73-.16-2.72l4.19-.55c0,.72.1,1.36.29,1.92.2.57.52,1.01.97,1.33.45.32,1.02.48,1.71.48s1.28-.14,1.68-.43c.4-.29.61-.72.61-1.3,0-.51-.14-.93-.42-1.26-.28-.33-.68-.63-1.21-.88-.53-.25-1.18-.51-1.94-.76-.78-.25-1.53-.52-2.23-.81-.7-.29-1.34-.64-1.9-1.06s-1.01-.93-1.33-1.54-.48-1.34-.48-2.2c0-1.11.27-2.06.81-2.86.54-.8,1.32-1.42,2.34-1.87,1.02-.45,2.24-.67,3.67-.67s2.6.23,3.65.69c1.05.46,1.86,1.15,2.42,2.06.57.91.79,2.08.67,3.51l-4.15.62c.05-.65-.03-1.22-.22-1.71-.2-.5-.5-.89-.9-1.18-.4-.29-.92-.43-1.54-.43-.69,0-1.22.16-1.59.47-.37.31-.55.71-.55,1.19,0,.44.14.8.42,1.09.28.29.67.54,1.19.76.52.22,1.14.46,1.85.71.74.23,1.47.5,2.18.81.72.31,1.37.69,1.97,1.12.6.44,1.08.98,1.44,1.63.36.65.54,1.45.54,2.42,0,1.04-.26,1.96-.78,2.77-.52.81-1.3,1.44-2.34,1.9-1.04.46-2.35.69-3.95.69Z"/>
      </g>
      <g>
        <path class="cls-2" d="M5.9,46.67l5.22,5.19,13.12-13.19h0c-2.88-2.86-7.54-2.85-10.4.03l-7.93,7.98Z"/>
        <path class="cls-2" d="M14.93,25.19l-14.93.04.02,7.36,14.93-.04c2.03,0,3.67-1.66,3.67-3.69h0c0-2.03-1.66-3.67-3.69-3.67Z"/>
        <path class="cls-2" d="M24.23,19.02L11.04,5.9l-5.19,5.22,7.98,7.93c2.88,2.86,7.54,2.85,10.4-.03h0Z"/>
        <path class="cls-2" d="M32.5,46.39c-.01-4.06-3.31-7.35-7.38-7.34h0l.05,18.61,7.36-.02-.03-11.25Z"/>
        <path class="cls-2" d="M25.18,18.63c4.06-.01,7.35-3.31,7.34-7.38l-.03-11.25-7.36.02.05,18.61h0Z"/>
      </g>
      <path class="cls-1" d="M50.22,11.09l-5.22-5.19-17.73,17.82-.02-.02h0c-2.86,2.88-2.85,7.54.03,10.4l17.84,17.75,5.19-5.22-15.1-15.02c-1.5-1.49-1.51-3.92-.01-5.43l15.02-15.1Z"/>
      <g>
        <path class="cls-2" d="M63.01,27.14V3.14h5.89v10.44c1.16-.49,2.24-1.12,3.22-1.89.98-.78,1.85-1.64,2.6-2.58s1.38-1.93,1.87-2.95c.5-1.02.85-2.02,1.07-3.02h6.73c-.29,1.19-.75,2.37-1.38,3.55-.63,1.18-1.39,2.29-2.29,3.33-.9,1.04-1.87,1.97-2.93,2.78-1.06.81-2.16,1.46-3.33,1.95v.47c1.19-.02,2.23.09,3.13.35s1.67.65,2.33,1.18c.65.53,1.21,1.18,1.65,1.95.45.76.84,1.63,1.18,2.6l2.04,5.86h-6.62l-1.35-4.95c-.27-.99-.64-1.79-1.11-2.4-.47-.61-1.09-1.04-1.84-1.31-.75-.27-1.72-.4-2.91-.4h-2.07v9.06h-5.89Z"/>
        <path class="cls-2" d="M86.73,27.14V3.14h5.89v24.01h-5.89ZM91.06,7.9V3.14h14.15v4.77h-14.15ZM91.06,17.21v-4.33h12.44v4.33h-12.44ZM91.06,27.14v-4.77h14.22v4.77h-14.22Z"/>
        <path class="cls-2" d="M106.33,8.05V3.14h19.35v4.91h-19.35ZM113.06,27.14V3.14h5.89v24.01h-5.89Z"/>
        <path class="cls-2" d="M123.14,27.14l8.11-24.01h8.37l8.07,24.01h-6.37l-5.64-19.39h-.51l-5.67,19.39h-6.37ZM127.9,22.71v-4h15.9v4h-15.9Z"/>
        <path class="cls-2" d="M158.42,27.65c-1.6,0-3.03-.16-4.29-.47-1.26-.31-2.35-.79-3.26-1.42-.91-.63-1.61-1.42-2.11-2.36-.5-.95-.78-2.04-.85-3.27l5.24-1.6c.07,1.07.35,1.94.84,2.62.48.68,1.14,1.18,1.96,1.51.82.33,1.75.49,2.76.49.95,0,1.75-.12,2.4-.35.65-.23,1.15-.54,1.49-.93.34-.39.51-.8.51-1.24,0-.56-.22-1.02-.67-1.38s-1.07-.67-1.85-.93c-.79-.25-1.7-.5-2.75-.75-1.16-.29-2.31-.61-3.44-.95-1.13-.34-2.15-.78-3.07-1.33s-1.65-1.25-2.2-2.11c-.55-.86-.82-1.93-.82-3.22,0-1.5.38-2.8,1.15-3.89s1.87-1.94,3.31-2.55c1.44-.61,3.18-.91,5.22-.91s3.83.31,5.31.93c1.48.62,2.62,1.49,3.42,2.62.8,1.13,1.2,2.44,1.2,3.95l-5.27,1.35c0-.7-.11-1.33-.33-1.87-.22-.55-.52-1-.91-1.36-.39-.36-.88-.64-1.47-.82-.59-.18-1.27-.27-2.02-.27-.87,0-1.61.1-2.22.31-.61.21-1.06.49-1.36.84-.3.35-.45.76-.45,1.22,0,.56.24,1.02.71,1.38s1.12.67,1.95.93,1.76.5,2.8.75c1.04.24,2.11.53,3.2.87,1.09.34,2.11.78,3.06,1.31.95.53,1.71,1.26,2.29,2.16.58.91.87,2.06.87,3.44,0,1.53-.4,2.84-1.2,3.93-.8,1.09-1.97,1.93-3.51,2.51s-3.41.87-5.62.87Z"/>
        <path class="cls-2" d="M171.22,27.14V3.14h5.89v24.01h-5.89ZM175.55,7.9V3.14h14.15v4.77h-14.15ZM175.55,17.21v-4.33h12.44v4.33h-12.44ZM175.55,27.14v-4.77h14.22v4.77h-14.22Z"/>
      </g>
    </g>
  </g>
</svg>
